<svg width="10" height="10" viewBox="0 0 10 10" fill="none" xmlns="http://www.w3.org/2000/svg">
<g clip-path="url(#clip0_27_296)">
<path d="M4.99998 7.92677C5.2157 7.92677 5.39057 7.75189 5.39057 7.53617C5.39057 7.32045 5.2157 7.14557 4.99998 7.14557C4.78425 7.14557 4.60938 7.32045 4.60938 7.53617C4.60938 7.75189 4.78425 7.92677 4.99998 7.92677Z" fill="black"/>
<path d="M6.08969 2.27496H3.91029C3.78812 2.27496 3.68872 2.36973 3.68872 2.486V6.60573C3.68872 6.7221 3.78805 6.81676 3.91029 6.81676H6.08969C6.21185 6.81676 6.31125 6.722 6.31125 6.60573V2.486C6.31119 2.36963 6.21185 2.27496 6.08969 2.27496Z" fill="black"/>
<path d="M5.00008 0C2.23878 0 0.000244141 2.2387 0.000244141 4.9999C0.000244141 7.7611 2.23878 10 5.00008 10C7.76138 10 10.0002 7.76123 10.0002 4.9999C10.0002 2.23857 7.76138 0 5.00008 0ZM6.94534 7.46737C6.94534 7.8493 6.63568 8.159 6.25371 8.159H3.74658C3.36464 8.159 3.05494 7.84933 3.05494 7.46737V2.51077C3.05494 2.12883 3.36461 1.81913 3.74658 1.81913H6.25371C6.63564 1.81913 6.94534 2.1288 6.94534 2.51077V7.46737Z" fill="black"/>
</g>
<defs>
<clipPath id="clip0_27_296">
<rect width="10" height="10" fill="white"/>
</clipPath>
</defs>
</svg>
