<svg width="10" height="10" viewBox="0 0 10 10" fill="none" xmlns="http://www.w3.org/2000/svg">
<g clip-path="url(#clip0_27_648)">
<path d="M5 0.000305176C2.23887 0.000305176 0 2.23873 0 5.00009C0 7.76144 2.23865 9.99986 5 9.99986C7.76157 9.99986 10 7.76144 10 5.00009C10 2.23873 7.76157 0.000305176 5 0.000305176ZM5 1.4953C5.43861 1.49527 5.85927 1.66948 6.16943 1.9796C6.4796 2.28972 6.65386 2.71036 6.65389 3.14897C6.65392 3.58758 6.47971 4.00824 6.16959 4.3184C5.85946 4.62857 5.43883 4.80283 5.00022 4.80286C4.56161 4.80289 4.14095 4.62868 3.83079 4.31856C3.52062 4.00843 3.34636 3.5878 3.34633 3.14919C3.3463 2.71058 3.52051 2.28992 3.83063 1.97976C4.14076 1.66959 4.56139 1.49533 5 1.4953ZM4.9989 8.69265C4.12274 8.69363 3.27515 8.38108 2.60937 7.81151C2.53189 7.7454 2.46967 7.66328 2.42697 7.5708C2.38428 7.47833 2.36214 7.3777 2.36208 7.27585C2.36208 6.34969 3.11166 5.60845 4.03804 5.60845H5.9624C6.889 5.60845 7.63573 6.34969 7.63573 7.27585C7.63579 7.37767 7.61373 7.47829 7.57107 7.57074C7.5284 7.66319 7.46616 7.74527 7.38865 7.8113C6.72291 8.38109 5.87519 8.69374 4.9989 8.69265Z" fill="black"/>
</g>
<defs>
<clipPath id="clip0_27_648">
<rect width="10" height="10" fill="white"/>
</clipPath>
</defs>
</svg>
