<svg width="170" height="65" viewBox="0 0 170 65" fill="currentColor" xmlns="http://www.w3.org/2000/svg">
<g clip-path="url(#clip0_236_8967)">
<path d="M45.2417 61.3906C44.0338 62.2913 42.9768 62.8917 41.7689 63.6423C39.957 64.6931 38.1451 64.9934 36.0312 65.1435C28.3307 65.7439 21.9891 60.64 20.7812 53.1342C20.1772 49.2312 20.6302 45.4783 22.744 42.0257C25.4619 37.5222 29.6896 35.5707 34.8233 35.4206C38.4471 35.4206 41.6179 36.1712 44.3357 38.7232C44.4867 38.8733 44.6377 38.8733 44.7887 39.0234C44.7887 38.573 44.7887 38.2728 44.7887 37.8225C44.7887 30.3167 44.7887 22.8109 44.7887 15.3051C44.7887 11.4021 45.8456 7.94948 48.4125 4.94717C48.5635 4.79706 48.8655 4.64694 49.1674 4.49683C49.3184 4.79706 49.4694 5.09729 49.4694 5.39752C49.4694 21.9102 49.4694 38.2728 49.4694 54.7855C49.4694 57.6377 49.6204 60.4899 49.7714 63.3421C49.7714 64.0927 49.6204 64.3929 48.7145 64.3929C47.8085 64.3929 46.7516 64.3929 45.8456 64.3929C45.2417 64.3929 44.9397 64.0927 44.9397 63.4922C45.2417 62.8917 45.2417 62.1412 45.2417 61.3906ZM45.2417 49.8317C45.0907 48.6308 44.9397 46.6793 44.6377 44.8779C44.3357 43.0765 43.5808 41.5753 42.5238 40.2243C40.712 37.8225 37.9941 37.222 35.1253 37.222C31.9545 37.222 29.2366 38.4229 27.5757 41.2751C26.9718 42.3259 26.5188 43.3767 26.2168 44.5777C25.3109 48.3305 25.1599 52.0834 26.0658 55.8363C27.2738 61.0904 30.4446 63.7924 35.4273 63.7924C39.202 63.7924 41.9199 62.2913 43.5808 58.8386C44.9397 55.9864 45.0907 53.2844 45.2417 49.8317Z"/>
<path d="M116.962 25.6632C115.754 26.5639 114.848 27.4645 113.791 28.065C110.319 30.1666 106.695 30.3167 102.769 29.5662C96.8805 28.2151 92.8038 23.7117 92.0488 17.5569C91.5958 14.2544 91.8978 10.9518 93.5587 7.79941C95.5216 3.74629 98.8434 1.34445 103.222 0.59387C106.544 -0.156707 110.017 0.143524 113.188 1.64468C116.962 3.44606 119.378 6.29826 120.586 10.3514C121.039 12.0026 121.19 13.6539 121.341 15.3052C121.492 19.5084 121.341 23.8618 121.341 28.065C121.341 29.1158 121.19 29.2659 120.284 29.1158C119.529 29.1158 118.623 29.1158 117.868 29.1158C117.264 29.1158 116.962 28.8156 116.962 28.3652C116.962 27.4645 116.962 26.714 116.962 25.6632ZM116.811 14.5546C116.811 12.6031 116.509 10.2013 115.603 7.94953C115.15 6.7486 114.546 5.6978 113.641 4.7971C111.98 2.69549 109.564 2.09503 106.846 1.94491C102.618 1.79479 99.2964 3.7463 97.9374 7.49918C96.1256 12.453 96.1256 17.4068 97.7865 22.3606C98.9944 25.6632 101.259 27.7648 104.883 28.2151C108.809 28.8156 112.886 27.4645 114.848 23.5615C116.358 21.0096 116.811 18.1574 116.811 14.5546Z"/>
<path d="M96.5785 63.3421C96.5785 64.0927 96.2766 64.3929 95.5216 64.3929C94.7666 64.3929 93.8607 64.3929 92.9548 64.3929C91.8978 64.3929 91.7468 64.2428 91.7468 63.192C91.7468 58.9888 91.7468 54.6354 91.7468 50.4322C91.7468 49.2313 91.8978 48.1805 92.0488 46.9795C92.8038 42.4761 95.2196 39.1735 99.4474 36.9218C104.279 34.3698 112.735 34.6701 117.264 39.774C119.831 42.6262 121.039 46.229 121.039 49.9818C121.039 54.3352 121.039 58.8387 121.039 63.192C121.039 63.9426 120.737 64.2428 119.982 64.2428C119.076 64.2428 118.321 64.2428 117.415 64.2428C116.66 64.2428 116.358 63.9426 116.358 63.192C116.358 58.5384 116.358 54.035 116.358 49.3814C116.358 46.9795 115.905 44.5777 114.848 42.326C112.584 37.0719 105.789 35.2705 101.108 38.2728C98.5414 39.9241 97.1825 42.4761 96.7295 45.3283C96.5785 48.931 96.5785 60.7902 96.5785 63.3421Z"/>
<path d="M168.903 56.1366C168.903 58.5385 168.903 60.9403 168.903 63.3422C168.903 64.0927 168.601 64.5431 167.846 64.393C167.091 64.393 166.185 64.393 165.43 64.393C164.373 64.393 164.222 64.2429 164.222 63.1921C164.222 58.5385 164.222 53.7348 164.222 49.0812C164.222 46.6793 163.769 44.2775 162.712 42.1759C160.901 38.5731 157.881 37.072 153.955 37.072C148.519 37.2221 145.5 40.8248 144.594 45.7787C144.292 47.7302 144.141 49.8318 144.141 51.9334C144.141 55.6863 144.141 59.5893 144.141 63.3422C144.141 64.0927 143.839 64.5431 143.084 64.393C142.178 64.393 141.272 64.393 140.366 64.393C139.913 64.393 139.46 64.2429 139.46 63.6424C139.46 58.3884 139.309 53.2844 139.611 48.1805C140.215 40.8248 146.103 35.5708 153.653 35.5708C156.975 35.5708 160.146 36.1713 163.014 38.2729C165.43 40.0743 167.091 42.326 167.997 45.1782C168.601 47.2798 168.903 49.3814 168.903 51.483C168.903 52.9842 168.903 54.4854 168.903 56.1366Z"/>
<path d="M61.0957 28.065C61.0957 28.8156 60.7938 29.1158 60.0388 29.1158C59.1329 29.1158 58.2269 29.1158 57.321 29.1158C56.717 29.1158 56.415 28.9657 56.415 28.3652C56.415 23.1112 56.264 17.8571 56.717 12.6031C57.019 7.9495 59.4348 4.19661 63.6626 1.94488C68.0413 -0.456967 72.722 -0.607082 77.2518 1.34442C83.1404 3.74627 85.7073 8.54996 85.8582 14.7047C86.0092 19.2082 85.8582 23.7116 85.8582 28.2151C85.8582 28.8156 85.5563 29.1158 84.9523 29.1158C84.0464 29.1158 83.1404 29.1158 82.2345 29.1158C81.3285 29.1158 81.1775 28.9657 81.1775 28.065C81.1775 23.2613 81.1775 18.3075 81.1775 13.5038C81.1775 10.9518 80.5736 8.54996 79.3656 6.44835C77.7047 3.44604 74.9869 2.095 71.6651 1.94488C68.6453 1.79477 66.0784 2.69546 64.1156 4.94719C62.6057 6.74858 61.6997 8.85019 61.5487 11.1019C61.2467 14.2544 61.0957 25.6631 61.0957 28.065Z"/>
<path d="M33.3133 12.3029C33.1623 10.0512 32.5583 7.79943 31.1994 5.84793C29.8405 3.89643 28.0286 2.54539 25.7637 2.24516C24.2538 2.09504 22.7439 1.94493 21.234 2.24516C18.0632 2.6955 15.9493 4.647 14.7414 7.64931C13.6845 9.90104 13.3825 12.3029 13.3825 14.7047C13.3825 19.2082 13.3825 23.5616 13.3825 28.065C13.3825 29.1158 13.2315 29.2659 12.3255 29.2659C11.4196 29.2659 10.6646 29.2659 9.7587 29.2659C9.15473 29.2659 8.85275 29.1158 8.85275 28.3652C8.85275 23.5616 8.70176 18.908 8.85275 14.1043C9.00374 8.85024 11.4196 4.647 16.1003 2.09504C21.385 -0.757154 29.8405 -0.456923 34.6722 5.09735C36.9371 7.79943 38.145 10.9519 38.145 14.5546C38.145 19.2082 38.145 23.7117 38.145 28.3652C38.145 29.1158 37.843 29.2659 37.088 29.2659C36.1821 29.2659 35.2762 29.2659 34.3702 29.2659C33.6153 29.2659 33.3133 28.9657 33.3133 28.2151C33.4643 25.6632 33.4643 15.005 33.3133 12.3029Z"/>
<path d="M81.1775 44.7278C81.1775 42.1758 81.1775 39.6239 81.1775 37.0719C81.1775 36.4714 81.3285 36.1712 82.0835 36.1712C83.1404 36.1712 84.0463 36.1712 85.1033 36.1712C85.7072 36.1712 85.8582 36.4714 85.8582 36.9218C85.8582 41.7255 86.0092 46.5292 85.7072 51.3329C85.2543 59.8894 78.7617 65.5938 69.8532 64.9934C66.3804 64.6931 63.2096 63.6423 60.7937 61.0904C57.9249 58.3883 56.566 55.0858 56.415 51.1828C56.264 46.3791 56.415 41.5754 56.415 36.7717C56.415 36.1712 56.717 35.871 57.321 35.871C58.2269 35.871 59.2838 35.871 60.1898 35.871C60.9447 35.871 61.0957 36.1712 61.0957 36.9218C61.0957 41.4252 61.0957 45.9287 61.0957 50.4322C61.0957 52.834 61.3977 55.0858 62.3037 57.3375C63.8136 60.9403 66.3804 62.8918 70.1552 63.192C74.9869 63.6423 78.6107 61.2405 80.1206 56.5869C80.8755 54.4853 81.1775 52.2336 81.1775 49.9818C81.1775 48.4807 81.1775 46.5292 81.1775 44.7278Z"/>
<path d="M132.665 51.9334C132.665 55.6863 132.665 59.4391 132.665 63.192C132.665 64.393 132.665 64.393 131.458 64.393C130.703 64.393 129.797 64.393 129.042 64.393C128.438 64.393 128.136 64.0927 128.136 63.4923C128.136 58.6886 128.136 53.8849 128.287 49.0812C128.438 45.6285 129.646 42.6262 131.911 40.0742C132.062 39.9241 132.363 39.774 132.514 39.6239C132.665 39.9241 132.816 40.0742 132.816 40.3745C132.665 44.2775 132.665 48.0304 132.665 51.9334Z"/>
<path d="M3.71915 7.6493C1.90726 7.6493 0.54834 6.29826 0.54834 4.34676C0.54834 2.54537 1.90726 1.19434 3.71915 1.19434C5.53104 1.19434 6.88996 2.54538 6.88996 4.49688C6.88996 6.29826 5.53104 7.6493 3.71915 7.6493Z" fill="#F6DAC5"/>
</g>
<defs>
<clipPath id="clip0_236_8967">
<rect width="170" height="65"/>
</clipPath>
</defs>
</svg>
