<svg width="253" height="253" viewBox="0 0 253 253" fill="none" xmlns="http://www.w3.org/2000/svg">
<path d="M215.163 36.7076C240.388 61.9323 253 91.4866 253 125.371C253 160.007 240.576 189.562 215.728 214.033C190.879 238.505 161.137 250.741 126.5 250.741C105.04 250.741 85.0863 245.658 66.6384 235.493L0 253L18.0714 188.056C6.77679 168.855 1.12946 147.96 1.12946 125.371C1.12946 90.7336 13.3653 61.1793 37.8371 36.7076C62.3088 12.2359 91.8631 0 126.5 0C161.137 0 190.691 12.2359 215.163 36.7076ZM126.5 229.846C155.113 229.846 179.773 219.681 200.48 199.35C221.187 178.644 231.54 153.984 231.54 125.371C231.917 97.5104 221.375 73.0387 199.915 51.9554C179.585 31.625 155.113 21.4598 126.5 21.4598C97.8869 21.4598 73.2269 31.625 52.5201 51.9554C32.1897 72.2857 22.0246 96.7574 22.0246 125.371C22.0246 145.324 27.4836 163.772 38.4018 180.714L40.6607 184.667L29.9308 223.069L69.4621 212.904L73.4152 215.163C89.6042 224.952 107.299 229.846 126.5 229.846ZM183.538 151.348C187.303 153.231 189.374 154.548 189.75 155.301C190.879 157.56 190.126 162.643 187.491 170.549C186.362 173.561 183.35 176.761 178.455 180.15C173.937 183.161 169.984 184.856 166.596 185.232C156.807 186.738 144.195 184.103 128.759 177.326C110.311 169.42 92.6161 153.607 75.6741 129.888C67.0149 118.217 62.6853 107.487 62.6853 97.6987C62.6853 88.2865 66.2619 79.439 73.4152 71.1562C76.0506 68.8973 78.8743 67.7679 81.8862 67.7679C84.8981 67.7679 86.9687 67.7679 88.0982 67.7679C91.4866 67.7679 93.7455 69.4621 94.875 72.8504C101.275 88.2865 104.475 96.0045 104.475 96.0045C105.605 98.2634 105.793 100.146 105.04 101.652C103.534 105.04 101.652 108.052 99.3929 110.687C97.1339 112.946 95.8162 114.264 95.4397 114.641C95.0632 115.017 95.2515 116.335 96.0045 118.594C101.275 128.382 106.923 135.724 112.946 140.618C119.347 145.513 127.818 150.595 138.359 155.866C141.371 157.372 143.63 157.184 145.136 155.301C150.031 149.654 153.419 145.513 155.301 142.877C156.807 140.618 159.066 140.054 162.078 141.183C165.09 142.312 172.243 145.701 183.538 151.348Z" fill="black"/>
</svg>
