<svg width="253" height="212" viewBox="0 0 253 212" fill="none" xmlns="http://www.w3.org/2000/svg">
<path d="M252.305 19.6181L213.928 198.961C210.918 211.744 203.958 215.128 193.046 209.112L134.916 166.251L106.698 193.321C102.935 197.081 98.9845 198.961 94.8458 198.961L99.3607 139.744L207.156 42.741C209.789 40.1091 209.789 38.6052 207.156 38.2292C204.898 37.4772 202.453 38.0412 199.819 39.9211L66.6272 123.953L9.0613 105.906C2.66509 104.026 -0.344894 101.206 0.031354 97.4462C0.407602 93.6864 4.3582 90.4905 11.8832 87.8587L235.939 1.00709C241.582 -0.872813 246.097 -0.120851 249.484 3.26298C252.87 6.27082 253.81 11.7225 252.305 19.6181Z" fill="black"/>
</svg>
