<svg width="141" height="43" viewBox="0 0 141 43" fill="none" xmlns="http://www.w3.org/2000/svg">
<g clip-path="url(#clip0_119_1515)">
<path d="M135.778 1.24593C138.18 1.24593 140.164 3.23323 140.164 5.63891V37.0173C140.164 39.423 138.18 41.4102 135.778 41.4102H5.22222C2.82 41.4102 0.835553 39.423 0.835553 37.0173V5.63891C0.835553 3.23323 2.82 1.24593 5.22222 1.24593H135.778ZM135.778 0.40918H5.22222C2.40222 0.40918 0 2.81485 0 5.63891V37.0173C0 39.946 2.40222 42.2471 5.22222 42.2471H135.778C138.702 42.2471 141 39.8414 141 37.0173V5.63891C141 2.81485 138.702 0.40918 135.778 0.40918Z" fill="#A6A6A6"/>
<path d="M32.3777 16.6216C30.1844 17.9812 29.0355 19.9686 29.2444 22.5834C29.4532 25.1983 30.811 26.9764 33.1089 28.1269C33.1089 28.2316 33.1089 28.2316 33.1089 28.3361C32.5866 29.9051 31.8555 31.3694 30.9155 32.7291C30.3932 33.4612 29.8711 34.0888 29.2444 34.7164C28.9311 35.0302 28.5132 35.3439 28.0955 35.5532C27.3644 35.9716 26.6332 35.9716 25.7977 35.8669C25.171 35.7624 24.5444 35.4486 23.9177 35.2394C23.2911 35.0302 22.56 34.821 21.8289 34.821C21.0977 34.821 20.3666 34.9256 19.74 35.2394C19.2177 35.4486 18.8 35.6577 18.2777 35.7624C17.7555 35.8669 17.3377 35.9716 16.92 35.9716C16.2932 35.9716 15.6666 35.7624 15.1444 35.4486C14.5177 35.0302 13.9955 34.5072 13.5777 33.9843C12.6377 32.8337 11.8022 31.6832 11.1755 30.428C10.5489 29.2775 10.1311 28.1269 9.81774 26.8718C9.50442 25.9304 9.39995 24.8845 9.29548 23.9432C9.29548 23.211 9.19109 22.4788 9.29548 21.8512C9.39995 20.7008 9.6088 19.5502 10.0266 18.5043C10.6532 17.1445 11.4888 15.9939 12.7421 15.0526C13.6821 14.4251 14.7266 14.0067 15.8755 13.7975C16.8155 13.6929 17.6511 13.7975 18.4866 14.1112C19.2177 14.3204 19.8444 14.6343 20.5755 14.8434C21.0977 15.0526 21.7244 15.0526 22.2466 14.8434C22.9777 14.5296 23.6044 14.3204 24.3355 14.1112C24.9621 13.9021 25.5889 13.7975 26.2155 13.6929C26.7377 13.6929 27.26 13.6929 27.6777 13.7975C28.6177 13.9021 29.5577 14.2159 30.3932 14.7388C31.1244 15.1572 31.7511 15.7847 32.2732 16.5169C32.2732 16.5169 32.2732 16.6216 32.3777 16.6216Z" fill="white"/>
<path d="M60.2645 24.0476C60.6822 24.0476 61.1001 24.0476 61.6222 24.0476C61.6222 24.466 61.6222 24.8843 61.7266 25.4073C61.8311 25.3027 61.8311 25.3027 61.9356 25.1982C63.0845 23.42 66.2177 23.2108 67.4711 25.4073C67.9934 26.3486 68.2022 27.29 68.0977 28.336C68.0977 28.9635 67.889 29.5911 67.68 30.1141C66.8445 31.9968 64.86 32.5198 63.3977 32.1014C62.8756 31.8922 62.3534 31.5784 62.04 31.16L61.9356 31.0555C61.9356 32.5198 61.9356 33.9841 61.9356 35.4484C61.7266 35.4484 61.4134 35.4484 61.2045 35.4484C60.9956 35.4484 60.7866 35.4484 60.4734 35.4484C60.4734 35.3438 60.4734 35.2392 60.4734 35.1347C60.4734 32.5198 60.4734 29.8003 60.4734 27.1855C60.4734 26.2441 60.4734 25.3027 60.4734 24.3614C60.2645 24.2568 60.2645 24.1522 60.2645 24.0476ZM61.8311 28.1268C61.8311 28.336 61.8311 28.5451 61.8311 28.7543C61.8311 29.0681 61.8311 29.3819 61.9356 29.5911C62.3534 30.7416 63.5022 31.3692 64.6511 31.0555C65.3822 30.8462 65.9045 30.3233 66.2177 29.6957C66.5311 28.9635 66.5311 28.2314 66.4266 27.4992C66.3222 26.8716 66.1134 26.3486 65.8 25.8257C65.1734 25.1981 64.4422 24.8843 63.6066 25.0935C62.6667 25.3027 62.1445 25.9303 61.8311 26.8716C61.8311 27.29 61.8311 27.7084 61.8311 28.1268Z" fill="white"/>
<path d="M69.8734 24.0474C70.2911 24.0474 70.7089 24.0474 71.2311 24.0474C71.2311 24.4658 71.2311 24.8842 71.3356 25.4072C71.44 25.3026 71.44 25.3025 71.5444 25.198C72.6934 23.4199 75.7223 23.3153 77.08 25.4072C77.4979 26.0347 77.7066 26.6623 77.7066 27.3945C77.8111 28.3358 77.7066 29.1726 77.3934 30.0093C76.8711 31.2645 76.0355 31.9966 74.6778 32.3104C73.9467 32.415 73.2155 32.415 72.4845 31.9966C72.1711 31.7874 71.8578 31.5782 71.6489 31.2645C71.6489 31.2645 71.5444 31.1599 71.44 31.0553C71.44 32.5196 71.44 33.9839 71.44 35.4482C71.1267 35.5529 70.9179 35.4482 70.7089 35.4482C70.5 35.4482 70.2911 35.4482 69.9778 35.4482C69.8734 31.6829 69.9778 27.9174 69.8734 24.0474ZM71.44 28.1266C71.44 28.4404 71.44 28.6496 71.44 28.8588C71.44 29.068 71.44 29.3817 71.5444 29.5909C71.9623 30.7415 73.1111 31.3691 74.3644 31.0553C75.2 30.846 75.6178 30.3231 75.9311 29.5909C76.2445 28.8588 76.2445 28.0221 76.14 27.2899C76.0355 26.7669 75.8266 26.3485 75.6178 25.9301C75.0956 25.198 74.1556 24.8842 73.32 25.0934C72.4845 25.3026 71.9623 25.9301 71.6489 26.7669C71.3356 27.1853 71.44 27.7082 71.44 28.1266Z" fill="white"/>
<path d="M58.8022 32.2061C58.28 32.2061 57.7577 32.2061 57.2356 32.2061C56.8177 31.0555 56.4 29.905 55.9822 28.6499C54.6244 28.6499 53.3711 28.6499 51.9089 28.6499C51.4911 29.8004 51.1777 30.951 50.76 32.2061C50.2377 32.2061 49.82 32.2061 49.1933 32.2061C50.4467 28.4406 51.8044 24.6753 53.0577 20.9099C53.6845 20.9099 54.2066 20.9099 54.8333 20.9099C56.1911 24.5706 57.4444 28.3361 58.8022 32.2061ZM52.3266 27.3947C52.8488 27.4993 55.46 27.3947 55.669 27.3947C55.1466 25.6167 54.4156 23.9431 53.9977 22.165C53.58 23.9431 52.8488 25.7212 52.3266 27.3947Z" fill="white"/>
<path d="M88.987 21.2232C88.8821 21.6416 88.673 21.9554 88.5688 22.3737C88.4647 22.3737 88.3597 22.2692 88.2556 22.2692C87.5242 21.9554 86.6886 21.7462 85.853 21.9554C85.4356 22.06 85.0174 22.1645 84.7042 22.4784C84.0777 23.1059 84.0777 24.0473 84.6 24.6749C84.8091 24.8841 85.0174 25.0932 85.3314 25.1978C85.7488 25.407 86.167 25.6162 86.5844 25.7208C87.1068 25.93 87.6291 26.1392 88.0465 26.453C88.7779 26.9759 89.1953 27.6035 89.3003 28.5449C89.5086 30.3229 88.5688 31.4735 87.2109 31.9965C86.5844 32.2057 85.853 32.3102 85.1223 32.3102C84.3909 32.3102 83.5553 32.101 82.9288 31.8919C82.7197 31.7873 82.6156 31.7873 82.4065 31.6827C82.5114 31.2643 82.6156 30.8459 82.8247 30.4275C82.9288 30.5322 83.033 30.5322 83.1379 30.5322C83.8686 30.9506 84.7042 31.1597 85.6447 31.1597C86.0621 31.1597 86.3753 31.0551 86.7935 30.9506C88.1514 30.323 88.1514 28.5449 87.2109 27.8127C86.8977 27.4989 86.4803 27.2897 86.0621 27.1851C85.7488 27.0806 85.4356 26.9759 85.1223 26.7667C84.6 26.5575 84.1818 26.2437 83.7644 25.93C82.4065 24.7794 82.5114 22.583 83.8686 21.537C84.3909 21.1186 85.1223 20.8049 85.7488 20.8049C86.6886 20.7002 87.5242 20.8049 88.3597 21.1186C88.4647 21.1186 88.5688 21.2232 88.7779 21.3278C88.8821 21.1186 88.8821 21.2232 88.987 21.2232Z" fill="white"/>
<path d="M104.236 28.0223C104.236 28.6499 104.131 29.2775 103.922 29.8004C103.295 31.2648 102.251 32.1015 100.684 32.3107C100.058 32.4153 99.5356 32.3107 99.0132 32.2061C97.7602 31.7877 96.9247 31.0556 96.5065 29.8004C96.0891 28.6499 96.0891 27.3948 96.5065 26.3488C97.133 24.8845 98.2818 24.0477 99.8488 23.9431C100.475 23.8385 101.102 23.9431 101.624 24.1523C102.982 24.6753 103.713 25.6166 104.027 26.8718C104.131 27.1856 104.131 27.604 104.236 28.0223ZM97.6553 28.1269C97.6553 28.2315 97.6553 28.3361 97.6553 28.4407C97.7602 29.1728 97.9685 29.8004 98.4909 30.428C99.3265 31.474 100.789 31.474 101.729 30.5326C101.937 30.3234 102.146 30.0096 102.251 29.6958C102.565 28.9636 102.669 28.2315 102.565 27.4993C102.46 26.9764 102.356 26.4534 102.042 25.9304C101.52 25.0936 100.58 24.6753 99.5356 24.9891C98.9091 25.1983 98.3867 25.512 98.0735 26.1397C97.8644 26.7672 97.6553 27.3948 97.6553 28.1269Z" fill="white"/>
<path d="M117.918 28.3359C116.037 28.3359 114.158 28.3359 112.174 28.3359C112.174 28.6496 112.174 28.9634 112.278 29.2773C112.591 30.3232 113.217 30.9508 114.262 31.1599C115.202 31.3691 116.037 31.2645 116.873 30.9508C116.978 30.9508 117.082 30.8461 117.082 30.8461C117.082 30.8461 117.082 30.8461 117.186 30.8461C117.291 31.1599 117.395 31.4737 117.395 31.8921C116.978 32.1012 116.56 32.2059 116.142 32.3104C115.411 32.4151 114.575 32.5196 113.845 32.3104C112.174 31.9967 111.129 31.0553 110.816 29.3818C110.502 28.1267 110.711 26.9761 111.233 25.9302C111.86 24.5704 113.009 23.9429 114.471 23.9429C114.784 23.9429 115.098 23.9429 115.411 24.0475C116.246 24.2567 116.873 24.7796 117.291 25.5118C117.814 26.3486 118.022 27.2899 117.918 28.3359ZM112.174 27.2899C113.636 27.2899 114.994 27.2899 116.456 27.2899C116.456 26.7669 116.351 26.3486 116.142 25.9302C115.933 25.6164 115.62 25.3026 115.307 25.0934C114.575 24.7796 113.531 24.7796 112.8 25.721C112.487 26.1394 112.278 26.6624 112.174 27.2899Z" fill="white"/>
<path d="M21.0977 13.4836C20.9933 12.9606 21.0977 12.4376 21.0977 12.0193C21.3066 10.9733 21.8288 9.92738 22.4555 9.09063C23.3956 7.94006 24.6488 7.2079 26.2156 6.78953C26.5288 6.68492 26.7377 6.58033 27.0511 6.68493C27.0511 6.78953 27.0511 6.78952 27.0511 6.89412C27.1555 8.56762 26.6333 9.92738 25.5888 11.2871C25.171 11.9146 24.6488 12.333 24.0221 12.7514C23.1866 13.2744 22.1422 13.4836 21.0977 13.4836Z" fill="white"/>
<path d="M93.06 24.0473C93.7914 24.0473 94.4179 24.0473 95.1485 24.0473C95.1485 24.4656 95.1485 24.7794 95.1485 25.1978C94.4179 25.1978 93.7914 25.1978 93.06 25.1978C93.06 25.3024 93.06 25.407 93.06 25.407C93.06 26.7667 93.06 28.2311 93.06 29.5907C93.06 29.7999 93.06 30.1138 93.1641 30.3229C93.2691 30.8459 93.5823 31.0551 94.2088 31.0551C94.522 31.0551 94.7311 31.0551 95.0444 30.9505C95.1485 31.2643 95.1485 31.6827 95.1485 31.9964C94.9402 31.9964 94.8353 32.1011 94.627 32.1011C94.1047 32.2056 93.6865 32.2056 93.1641 32.1011C92.4335 31.8919 92.0153 31.4735 91.807 30.7413C91.702 30.3229 91.5979 29.9046 91.5979 29.4862C91.5979 28.1264 91.5979 26.7667 91.5979 25.3024C91.5979 25.1978 91.5979 25.0932 91.5979 24.9886C91.1797 24.9886 90.7623 24.9886 90.3441 24.9886C90.3441 24.5703 90.3441 24.2564 90.3441 23.8381C90.7623 23.8381 91.1797 23.8381 91.5979 23.8381C91.5979 23.2105 91.5979 22.5829 91.5979 21.8507C92.1202 21.7462 92.5376 21.6416 93.06 21.4324C93.06 22.4783 93.06 23.2105 93.06 24.0473Z" fill="white"/>
<path d="M48.0445 9.92722C49.1933 9.82258 50.2378 9.71795 51.3867 9.92722C52.8488 10.241 53.6844 11.2869 53.8933 12.7512C53.9977 13.3788 53.8933 13.9018 53.7888 14.4247C53.4756 15.6799 52.6401 16.5166 51.2822 16.8304C50.4467 17.0396 49.6111 17.0396 48.6711 16.935C48.4622 16.935 48.2533 16.935 48.0445 16.8304C48.0445 14.6339 48.0445 12.2283 48.0445 9.92722ZM48.9845 16.2028C49.7156 16.3075 50.3422 16.3075 50.9688 16.0983C51.9089 15.7845 52.5356 15.1569 52.7445 14.2155C52.8488 13.7971 52.8488 13.2742 52.8488 12.7512C52.7444 11.6007 52.1177 10.764 50.9688 10.5548C50.3422 10.4501 49.7156 10.4501 49.1933 10.5548C49.0889 10.5548 49.0889 10.5548 48.9845 10.6593C48.9845 12.542 48.9845 14.3201 48.9845 16.2028Z" fill="white"/>
<path d="M107.473 32.2058C106.951 32.2058 106.534 32.2058 106.011 32.2058C106.011 29.4864 106.011 26.8715 105.906 24.1521C106.115 24.0474 106.847 24.0474 107.16 24.1521C107.16 24.675 107.16 25.198 107.264 25.7209C107.369 25.6164 107.369 25.6164 107.369 25.5118C107.577 25.0934 107.787 24.7796 107.996 24.5705C108.518 24.0474 109.144 23.8383 109.876 24.0474C109.876 24.4658 109.876 24.9888 109.876 25.4072C109.771 25.4072 109.667 25.4072 109.562 25.4072C108.831 25.4072 108.309 25.6164 107.891 26.2439C107.577 26.5578 107.473 26.9761 107.473 27.4991C107.473 27.8129 107.473 28.0221 107.369 28.3358C107.369 29.5909 107.369 30.8461 107.369 32.1013C107.473 31.8921 107.473 31.9966 107.473 32.2058Z" fill="white"/>
<path d="M89.4044 9.50903C89.7177 9.50903 90.0309 9.50903 90.3442 9.50903C90.3442 12.0193 90.3442 14.4249 90.3442 16.9352C90.1359 16.9352 89.8218 16.9352 89.5086 16.9352C89.5086 16.726 89.5086 16.4122 89.5086 16.0985C89.4044 16.203 89.4044 16.203 89.4044 16.203C88.7779 17.1444 87.2109 17.3536 86.3753 16.4122C85.9579 15.9938 85.7488 15.5755 85.6447 15.0525C85.5397 14.3203 85.5397 13.5881 85.853 12.9606C86.3753 11.9146 87.42 11.4963 88.4647 11.7055C88.7779 11.8101 89.0912 11.9146 89.3003 12.2285C89.3003 12.2285 89.4044 12.333 89.4044 12.4377C89.4044 11.4963 89.4044 10.4503 89.4044 9.50903ZM89.4044 14.4249C89.4044 14.2157 89.4044 14.1111 89.4044 13.902C89.4044 13.2744 88.987 12.6468 88.3597 12.5422C87.7333 12.4377 87.1068 12.6468 86.7935 13.2744C86.4803 14.0065 86.4803 14.7387 86.7935 15.4709C87.1068 16.0985 87.6291 16.4122 88.3597 16.203C88.987 16.0985 89.4044 15.5755 89.5086 14.9479C89.4044 14.7387 89.4044 14.5295 89.4044 14.4249Z" fill="white"/>
<path d="M62.04 16.9352C61.7266 16.9352 61.5177 16.9352 61.2044 16.9352C60.6822 15.2617 60.16 13.5881 59.7422 11.9146C59.9511 11.81 60.3689 11.81 60.6822 11.9146C60.8911 12.5422 60.9956 13.2744 61.2044 13.9019C61.4133 14.5295 61.5177 15.2617 61.7266 15.9938C62.1445 14.6341 62.5622 13.2744 62.98 11.9146C63.2932 11.9146 63.5022 11.9146 63.8156 11.9146C64.2333 13.2744 64.6511 14.6341 65.0689 15.9938C65.3822 14.6341 65.8 13.2744 66.2177 11.9146C66.5311 11.9146 66.8444 11.9146 67.1577 11.9146C66.6356 13.5881 66.1132 15.2617 65.4867 16.9352C65.1733 16.9352 64.9645 16.9352 64.6511 16.9352C64.4421 16.3076 64.2333 15.5754 64.0244 14.9478C63.8156 14.3203 63.6066 13.5881 63.3977 12.9605C62.98 14.3203 62.4577 15.5754 62.04 16.9352Z" fill="white"/>
<path d="M111.755 16.9352C111.442 16.9352 111.129 16.9352 110.92 16.9352C110.816 16.726 110.816 9.92741 110.92 9.50903C111.233 9.50903 111.442 9.50903 111.86 9.50903C111.86 10.555 111.86 11.6009 111.86 12.6468C111.964 12.5422 111.964 12.5422 112.069 12.4377C112.591 11.9146 113.217 11.7055 113.949 11.8101C114.471 11.9146 114.889 12.2285 115.098 12.7514C115.202 13.0652 115.307 13.379 115.307 13.5881C115.307 14.6341 115.307 15.6801 115.307 16.726V16.8306C114.994 16.8306 114.784 16.8306 114.471 16.8306C114.471 16.726 114.471 16.6214 114.471 16.5168C114.471 15.6801 114.471 14.8433 114.471 14.1111C114.471 13.7973 114.471 13.5881 114.367 13.2744C114.158 12.4377 113.427 12.333 112.904 12.4377C112.382 12.6468 112.174 12.9606 112.069 13.4836C112.069 13.5881 112.069 13.7973 112.069 13.902C112.069 14.7387 112.069 15.5755 112.069 16.4122C111.755 16.726 111.755 16.8306 111.755 16.9352Z" fill="white"/>
<path d="M75.2 14.425C75.2 14.0066 75.3045 13.4836 75.5133 13.0652C75.931 12.2285 76.5578 11.8101 77.3934 11.7056C77.8111 11.7056 78.1245 11.7056 78.5422 11.8101C79.4822 12.1239 80.0044 12.7515 80.213 13.6928C80.3179 14.2158 80.3179 14.7388 80.1089 15.2617C79.7956 16.2031 78.8555 16.9352 77.9155 16.9352C77.4978 16.9352 76.9756 16.8307 76.5579 16.6215C75.7222 16.2031 75.4089 15.4709 75.3045 14.6342C75.2 14.6342 75.2 14.5296 75.2 14.425ZM76.14 14.425C76.14 14.8434 76.2445 15.3664 76.5579 15.7848C77.08 16.5169 78.1245 16.5169 78.7511 15.8893C78.8555 15.7848 78.96 15.5756 79.0645 15.4709C79.3779 14.7388 79.3778 14.1113 78.96 13.3791C78.751 12.8561 78.3333 12.5423 77.7066 12.5423C77.08 12.5423 76.6622 12.8561 76.3489 13.3791C76.2445 13.5883 76.14 14.0066 76.14 14.425Z" fill="white"/>
<path d="M59.4288 14.32C59.4288 14.7384 59.3243 15.0522 59.22 15.366C58.9066 16.3073 58.0711 16.9349 57.0266 16.9349C56.7132 16.9349 56.4 16.9349 56.0866 16.8303C55.2511 16.6212 54.7287 15.9936 54.4155 15.1568C54.2066 14.5292 54.2066 13.9016 54.4155 13.2741C54.7287 12.3328 55.5643 11.7051 56.5043 11.6006C56.8177 11.6006 57.2355 11.6006 57.5487 11.7051C58.4888 12.019 58.9066 12.6465 59.1155 13.4833C59.4288 13.9016 59.4288 14.1108 59.4288 14.32ZM58.4888 14.4247C58.4888 14.0063 58.3843 13.5879 58.1755 13.1695C57.6532 12.2281 56.2955 12.1236 55.6688 13.1695C55.2511 13.9016 55.2511 14.7384 55.6688 15.5751C55.8777 16.0981 56.4 16.412 56.9222 16.412C57.4444 16.412 57.8621 16.0981 58.1755 15.6798C58.3843 15.2614 58.4888 14.843 58.4888 14.4247Z" fill="white"/>
<path d="M98.7 14.4249C98.7 14.6341 98.5958 14.9479 98.5958 15.2617C98.2818 16.3076 97.4462 17.0397 96.2974 17.0397C95.7758 17.0397 95.2535 16.9352 94.8353 16.726C94.2088 16.3076 93.8956 15.7846 93.7914 15.1571C93.6865 14.5295 93.6865 14.0066 93.8956 13.4836C94.2088 12.5422 95.0444 11.9146 95.9841 11.8101C96.2974 11.8101 96.7156 11.8101 97.0288 11.9146C97.9685 12.2284 98.3867 12.856 98.5958 13.6927C98.7 13.9019 98.7 14.1111 98.7 14.4249ZM97.7602 14.4249C97.7602 14.0066 97.6553 13.5881 97.4462 13.1697C96.9247 12.2284 95.5667 12.1238 94.9402 13.1697C94.522 13.9019 94.522 14.7387 94.9402 15.5754C95.1485 16.0984 95.6709 16.4122 96.1932 16.4122C96.8197 16.4122 97.1329 16.0984 97.4462 15.5754C97.6553 15.1571 97.7602 14.8433 97.7602 14.4249Z" fill="white"/>
<path d="M120.529 14.5296C119.38 14.5296 118.126 14.5296 116.978 14.5296C116.873 15.2618 117.395 15.9939 118.126 16.2031C118.649 16.3077 119.276 16.3077 119.798 16.0986C119.902 16.0986 120.006 15.9939 120.111 15.9939C120.215 16.2031 120.215 16.4123 120.32 16.6215C120.006 16.8307 119.694 16.8307 119.38 16.9353C118.962 17.0399 118.545 17.0399 118.022 16.9353C117.082 16.7261 116.456 16.2031 116.247 15.3664C116.037 14.6342 116.037 13.7974 116.351 13.0653C116.873 12.0194 117.918 11.4964 119.067 11.8102C119.589 11.9147 120.006 12.3331 120.215 12.7515C120.529 13.379 120.634 13.902 120.529 14.5296ZM119.694 13.902C119.798 13.379 119.485 12.7515 118.962 12.5423C118.022 12.1239 116.978 12.8561 117.082 13.902C117.918 13.902 118.754 13.902 119.694 13.902Z" fill="white"/>
<path d="M67.7843 11.9147C67.9932 11.9147 68.3066 11.9147 68.5155 11.9147C68.5155 12.1239 68.5155 12.4377 68.62 12.6469C68.7244 12.5422 68.7244 12.5422 68.8288 12.4377C69.3511 11.8101 70.1866 11.6009 70.9177 11.8101C71.6487 12.0193 71.9621 12.5422 72.0666 13.2744C72.0666 13.4836 72.1711 13.6928 72.1711 13.7975C72.1711 14.7388 72.1711 15.6801 72.1711 16.7261C72.1711 16.8306 72.1711 16.8306 72.1711 16.9353C71.8577 16.9353 71.5444 16.9353 71.231 16.9353C71.231 16.8306 71.231 16.7261 71.231 16.6214C71.231 15.7847 71.231 14.9479 71.231 14.1112C71.231 13.902 71.231 13.5883 71.1266 13.3791C70.9177 12.6469 70.2911 12.3331 69.56 12.5422C69.0377 12.7514 68.7244 13.1699 68.7244 13.6928C68.7244 14.1112 68.7244 14.6342 68.7244 15.0526C68.7244 15.5755 68.7244 16.2031 68.7244 16.7261C68.7244 16.7261 68.7244 16.7261 68.7244 16.8306C68.411 16.8306 68.0977 16.8306 67.7843 16.8306C67.7843 15.2618 67.7843 13.5883 67.7843 11.9147Z" fill="white"/>
<path d="M84.7042 16.9349C84.4959 16.9349 84.1818 16.9349 83.8686 16.9349C83.8686 16.7257 83.8686 16.5165 83.7644 16.3073C83.6603 16.4119 83.6603 16.4119 83.5553 16.5165C83.033 16.9349 82.5115 17.1441 81.8842 17.0395C81.2577 16.9349 80.8403 16.6211 80.7353 15.9936C80.5262 15.3659 80.7353 14.7384 81.2577 14.32C81.5709 14.0063 82.0933 13.9016 82.5115 13.7971C82.9289 13.6924 83.3462 13.6924 83.7644 13.6924C83.8686 13.0649 83.4512 12.5419 82.8247 12.4373C82.4065 12.4373 81.9891 12.4373 81.5709 12.6465C81.4668 12.6465 81.4668 12.7511 81.3618 12.7511C81.2577 12.5419 81.2577 12.3328 81.1535 12.1236C81.2577 12.1236 81.2577 12.0189 81.3618 12.0189C82.0933 11.7052 82.7198 11.6006 83.5553 11.8097C84.0777 11.9144 84.4959 12.3328 84.7042 12.8557C84.8091 13.1695 84.8091 13.3787 84.8091 13.6924C84.8091 14.0063 84.8091 14.32 84.8091 14.6338C84.7042 15.3659 84.7042 16.0981 84.7042 16.9349ZM83.7644 14.32C83.2421 14.32 82.7198 14.32 82.1974 14.6338C82.0933 14.7384 81.9891 14.7384 81.8842 14.843C81.6759 15.1567 81.5709 15.4706 81.6759 15.7844C81.78 16.0981 81.9891 16.2028 82.3024 16.3073C82.9289 16.4119 83.6603 15.9936 83.7644 15.3659C83.8686 15.0522 83.7644 14.7384 83.7644 14.32Z" fill="white"/>
<path d="M100.371 11.9147C100.371 12.1239 100.371 12.4377 100.475 12.6469C100.58 12.5422 100.58 12.5422 100.684 12.4377C101.207 11.8101 101.833 11.6009 102.669 11.8101C103.191 11.9147 103.609 12.2285 103.818 12.7514C103.922 12.9606 104.027 13.2744 104.027 13.4836C104.027 14.6342 104.027 15.6801 104.027 16.8306C103.713 16.8306 103.4 16.8306 103.087 16.8306C103.087 16.7261 103.087 16.6214 103.087 16.5169C103.087 15.6801 103.087 14.8434 103.087 14.1112C103.087 13.902 103.087 13.5883 102.982 13.3791C102.773 12.6469 102.146 12.3331 101.416 12.5422C100.998 12.7514 100.684 13.0653 100.58 13.4836C100.58 13.6928 100.58 13.7975 100.58 14.0066C100.58 14.8434 100.58 15.6801 100.58 16.5169C100.58 16.6214 100.58 16.7261 100.58 16.8306C100.267 16.8306 99.9538 16.8306 99.6397 16.8306C99.6397 15.1571 99.6397 13.4836 99.6397 11.8101C99.8488 11.9147 100.162 11.9147 100.371 11.9147Z" fill="white"/>
<path d="M110.084 11.8103C110.084 12.0194 110.084 12.2286 110.084 12.5424C109.667 12.5424 109.249 12.5424 108.831 12.5424C108.831 12.647 108.831 12.7516 108.831 12.7516C108.831 13.5883 108.831 14.4251 108.831 15.1572C108.831 15.3664 108.831 15.4711 108.935 15.6803C109.04 15.994 109.249 16.2032 109.562 16.2032C109.771 16.2032 109.876 16.2032 110.084 16.2032C110.189 16.4124 110.189 16.6216 110.189 16.9354C109.667 17.0399 109.144 17.1446 108.622 16.8307C108.309 16.6216 108.1 16.3078 108.1 15.994C108.1 15.7848 107.996 15.4711 107.996 15.2619C107.996 14.4251 107.996 13.6929 107.996 12.8562C107.996 12.7516 107.996 12.647 107.996 12.5424C107.786 12.5424 107.473 12.5424 107.264 12.5424C107.264 12.3332 107.264 12.124 107.264 11.8103C107.473 11.8103 107.786 11.8103 107.996 11.8103C107.996 11.3919 107.996 10.9735 107.996 10.5551C108.309 10.4506 108.622 10.3459 108.935 10.3459C108.935 10.869 108.935 11.2873 108.935 11.8103C109.249 11.8103 109.667 11.8103 110.084 11.8103Z" fill="white"/>
<path d="M74.2601 16.9352C73.9467 16.9352 73.6333 16.9352 73.32 16.9352C73.32 14.4249 73.32 12.0193 73.32 9.50903C73.6333 9.50903 73.9467 9.50903 74.1556 9.50903C74.26 9.71822 74.2601 16.5168 74.2601 16.9352Z" fill="white"/>
</g>
<defs>
<clipPath id="clip0_119_1515">
<rect width="141" height="43" fill="white"/>
</clipPath>
</defs>
</svg>
