<svg width="140" height="43" viewBox="0 0 140 43" fill="none" xmlns="http://www.w3.org/2000/svg">
<g clip-path="url(#clip0_119_1541)">
<path d="M134.815 1.25652C137.2 1.25652 139.17 3.24228 139.17 5.6461V37.0004C139.17 39.4041 137.2 41.3899 134.815 41.3899H5.18518C2.8 41.3899 0.829629 39.4041 0.829629 37.0004V5.6461C0.829629 3.24228 2.8 1.25652 5.18518 1.25652H134.815ZM134.815 0.42041H5.18518C2.38518 0.42041 0 2.82422 0 5.6461V37.0004C0 39.9268 2.38518 42.2261 5.18518 42.2261H134.815C137.718 42.2261 140 39.8222 140 37.0004V5.6461C140 2.82422 137.718 0.42041 134.815 0.42041Z" fill="#A6A6A6"/>
<path d="M70.6222 23.2044C68.1333 23.2044 66.163 25.0857 66.163 27.6985C66.163 30.2068 68.1333 32.1926 70.6222 32.1926C73.1111 32.1926 75.0815 30.3114 75.0815 27.6985C75.0815 24.9811 73.1111 23.2044 70.6222 23.2044ZM70.6222 30.3114C69.274 30.3114 68.1333 29.1617 68.1333 27.594C68.1333 26.0263 69.274 24.8766 70.6222 24.8766C71.9703 24.8766 73.1111 25.9218 73.1111 27.594C73.1111 29.1617 71.9703 30.3114 70.6222 30.3114ZM60.9777 23.2044C58.4889 23.2044 56.5185 25.0857 56.5185 27.6985C56.5185 30.2068 58.4889 32.1926 60.9777 32.1926C63.4666 32.1926 65.437 30.3114 65.437 27.6985C65.437 24.9811 63.4666 23.2044 60.9777 23.2044ZM60.9777 30.3114C59.6297 30.3114 58.4889 29.1617 58.4889 27.594C58.4889 26.0263 59.6297 24.8766 60.9777 24.8766C62.3258 24.8766 63.4667 25.9218 63.4667 27.594C63.4667 29.1617 62.3258 30.3114 60.9777 30.3114ZM49.4666 24.5631V26.4443H53.9258C53.8222 27.4895 53.4074 28.3256 52.8889 28.8482C52.2666 29.4753 51.2297 30.2068 49.4666 30.2068C46.6666 30.2068 44.5926 28.0121 44.5926 25.1902C44.5926 22.3683 46.7703 20.1735 49.4666 20.1735C50.9185 20.1735 52.0592 20.8006 52.8889 21.5322L54.237 20.1735C53.0963 19.1283 51.6445 18.2922 49.5703 18.2922C45.837 18.2922 42.6222 21.4277 42.6222 25.1902C42.6222 28.9527 45.837 32.0881 49.5703 32.0881C51.6445 32.0881 53.0963 31.461 54.3408 30.1023C55.5852 28.8482 56 27.0714 56 25.7128C56 25.2947 56 24.8767 55.8963 24.5631H49.4666ZM96.5485 26.0263C96.1333 24.9811 95.0962 23.2044 92.8152 23.2044C90.5333 23.2044 88.6667 24.9811 88.6667 27.6985C88.6667 30.2068 90.5333 32.1926 93.0219 32.1926C94.9924 32.1926 96.2371 30.9385 96.6515 30.2068L95.2 29.1617C94.6818 29.8933 94.0591 30.4158 93.0219 30.4158C91.9848 30.4158 91.3629 29.9978 90.8447 29.0572L96.7553 26.5489L96.5485 26.0263ZM90.5333 27.4895C90.5333 25.8172 91.8818 24.8766 92.8152 24.8766C93.5409 24.8766 94.2667 25.2947 94.4743 25.8172L90.5333 27.4895ZM85.6591 31.7746H87.6295V18.7103H85.6591V31.7746ZM82.5485 24.145C82.0295 23.6225 81.2 23.0999 80.163 23.0999C77.9852 23.0999 75.9111 25.0857 75.9111 27.594C75.9111 30.1023 77.8815 31.9836 80.163 31.9836C81.2 31.9836 82.0295 31.461 82.4447 30.9385H82.5485V31.5655C82.5485 33.2378 81.6152 34.1783 80.163 34.1783C79.0222 34.1783 78.1926 33.3422 77.9852 32.6107L76.3258 33.3422C76.8445 34.4919 78.0889 35.9551 80.2666 35.9551C82.5485 35.9551 84.4152 34.5964 84.4152 31.3565V23.4135H82.5485V24.145ZM80.2666 30.3114C78.9185 30.3114 77.7777 29.1617 77.7777 27.594C77.7777 26.0263 78.9185 24.8766 80.2666 24.8766C81.6152 24.8766 82.6515 26.0263 82.6515 27.594C82.6515 29.1617 81.6152 30.3114 80.2666 30.3114ZM105.57 18.7103H100.904V31.7746H102.874V26.8624H105.57C107.749 26.8624 109.822 25.2947 109.822 22.7864C109.822 20.278 107.749 18.7103 105.57 18.7103ZM105.674 24.9811H102.874V20.4871H105.674C107.126 20.4871 107.955 21.7412 107.955 22.6818C107.851 23.8315 107.022 24.9811 105.674 24.9811ZM117.6 23.0999C116.149 23.0999 114.696 23.727 114.178 25.0857L115.941 25.8172C116.355 25.0857 116.978 24.8766 117.704 24.8766C118.74 24.8766 119.674 25.5037 119.778 26.5489V26.6533C119.467 26.4443 118.637 26.1308 117.808 26.1308C115.941 26.1308 114.074 27.176 114.074 29.0572C114.074 30.8339 115.63 31.9836 117.289 31.9836C118.637 31.9836 119.26 31.3565 119.778 30.7294H119.882V31.7746H121.748V26.7579C121.54 24.4586 119.778 23.0999 117.6 23.0999ZM117.392 30.3114C116.77 30.3114 115.837 29.9978 115.837 29.1617C115.837 28.1165 116.978 27.803 117.911 27.803C118.74 27.803 119.155 28.0121 119.674 28.2211C119.466 29.4753 118.43 30.3114 117.392 30.3114ZM128.282 23.4135L126.103 29.0572H126L123.718 23.4135H121.645L125.067 31.3565L123.097 35.7461H125.067L130.355 23.4135H128.282ZM110.859 31.7746H112.83V18.7103H110.859V31.7746Z" fill="white"/>
<path d="M10.7852 8.25903C10.4741 8.57261 10.3704 9.09514 10.3704 9.72223V32.8199C10.3704 33.447 10.5778 33.9695 10.8889 34.2831L10.9926 34.3876L23.8519 21.4279V21.3234V21.2188L10.7852 8.25903Z" fill="url(#paint0_linear_119_1541)"/>
<path d="M28 25.8176L23.7482 21.5324V21.3234V21.2189L28 16.9338L28.1037 17.0384L33.1852 19.9648C34.637 20.8009 34.637 22.1595 33.1852 22.9956L28 25.8176Z" fill="url(#paint1_linear_119_1541)"/>
<path d="M28.1038 25.7128L23.7482 21.3232L10.7853 34.3875C11.3038 34.91 12.0297 34.91 12.963 34.4919L28.1038 25.7128Z" fill="url(#paint2_linear_119_1541)"/>
<path d="M28.1038 16.9337L12.963 8.25911C12.0297 7.73652 11.3038 7.84104 10.7853 8.36358L23.7482 21.3233L28.1038 16.9337Z" fill="url(#paint3_linear_119_1541)"/>
<path opacity="0.25" d="M12.9629 8.36367L33.1852 19.9647C33.8074 20.3827 34.2223 20.8008 34.2223 21.3234C34.2223 20.8008 33.911 20.2783 33.1852 19.8602L12.9629 8.25912C11.5111 7.423 10.3704 8.05009 10.3704 9.72231V9.82686C10.3704 8.25912 11.5111 7.52752 12.9629 8.36367Z" fill="white"/>
<path d="M43.6593 15.3661H42.9333V13.2759H43.5555C44.0742 12.8578 44.3852 12.0217 44.3852 10.872V7.73657H48.5333V13.2759H49.2593V15.3661H48.5333V14.0075H43.763V15.3661H43.6593ZM45.1111 10.872C45.1111 11.8126 44.9037 12.6488 44.489 13.2759H47.6V8.46815H45.0074V10.872H45.1111Z" fill="white" stroke="white" stroke-width="0.2" stroke-miterlimit="10"/>
<path d="M55.3778 13.1712C54.7555 13.7983 54.0296 14.1119 53.0962 14.1119C52.1629 14.1119 51.437 13.7983 50.8147 13.1712C50.1925 12.5441 49.8815 11.8127 49.8815 10.872C49.8815 9.93141 50.1925 9.19977 50.8147 8.57269C51.437 7.94562 52.1629 7.63208 53.0962 7.63208C54.0296 7.63208 54.7555 7.94562 55.3778 8.57269C55.9999 9.19977 56.311 9.93141 56.311 10.872C56.311 11.8127 55.9999 12.5441 55.3778 13.1712ZM51.437 12.6487C51.8518 13.0667 52.4741 13.3802 53.0962 13.3802C53.7184 13.3802 54.3407 13.1712 54.7555 12.6487C55.1702 12.2306 55.4815 11.6036 55.4815 10.872C55.4815 10.1404 55.274 9.51335 54.7555 9.0953C54.3407 8.67724 53.7184 8.36366 53.0962 8.36366C52.4741 8.36366 51.8518 8.57269 51.437 9.0953C51.0221 9.51335 50.711 10.1404 50.711 10.872C50.711 11.6036 50.9184 12.2306 51.437 12.6487Z" fill="white" stroke="white" stroke-width="0.2" stroke-miterlimit="10"/>
<path d="M60.3555 14.1119C59.4223 14.1119 58.6963 13.7983 58.0742 13.1712C57.4519 12.5441 57.1407 11.8127 57.1407 10.872C57.1407 9.93141 57.4519 9.19977 58.0742 8.57269C58.6963 7.94562 59.4223 7.63208 60.3555 7.63208C61.2889 7.63208 62.0148 7.94562 62.637 8.67724L62.1186 9.19977C61.7037 8.67724 61.0815 8.36366 60.3555 8.36366C59.6297 8.36366 59.1111 8.57269 58.5926 9.0953C58.0742 9.51335 57.8667 10.1404 57.8667 10.872C57.8667 11.6036 58.0742 12.2306 58.5926 12.6487C59.0074 13.0667 59.6297 13.3802 60.3555 13.3802C61.0815 13.3802 61.7037 13.0667 62.2223 12.4397L62.7407 12.9622C62.4297 13.2758 62.1186 13.5893 61.7037 13.7983C61.2889 14.0073 60.8742 14.1119 60.3555 14.1119Z" fill="white" stroke="white" stroke-width="0.2" stroke-miterlimit="10"/>
<path d="M66.0592 14.0075H65.2297V8.46815H63.4666V7.73657H67.7185V8.46815H65.9555V14.0075H66.0592Z" fill="white" stroke="white" stroke-width="0.2" stroke-miterlimit="10"/>
<path d="M73.2148 7.73657L70.8297 13.0668C70.5186 13.7985 70 14.2165 69.3778 14.2165C69.1705 14.2165 68.9631 14.2165 68.7555 14.112L68.963 13.3803C69.0668 13.4848 69.2742 13.4849 69.3778 13.4849C69.5852 13.4849 69.689 13.4848 69.7926 13.3803C69.8963 13.2758 70 13.1714 70.1037 12.9624L70.3111 12.4398L68.2371 7.84109H69.1705L70.726 11.3945L72.2815 7.73657H73.2148Z" fill="white" stroke="white" stroke-width="0.2" stroke-miterlimit="10"/>
<path d="M74.1482 14.0075V7.73657H78.6074V14.0075H77.7779V8.46815H74.8742V14.0075H74.1482Z" fill="white" stroke="white" stroke-width="0.2" stroke-miterlimit="10"/>
<path d="M80.0592 14.0075V7.73657H80.8886V10.4539H84V7.73657H84.8295V14.0075H84V11.1855H80.8886V14.0075H80.0592Z" fill="white" stroke="white" stroke-width="0.2" stroke-miterlimit="10"/>
<path d="M91.3629 13.1712C90.741 13.7983 90.0152 14.1119 89.0819 14.1119C88.1485 14.1119 87.422 13.7983 86.8 13.1712C86.1781 12.5441 85.8667 11.8127 85.8667 10.872C85.8667 9.93141 86.1781 9.19977 86.8 8.57269C87.422 7.94562 88.1485 7.63208 89.0819 7.63208C90.0152 7.63208 90.741 7.94562 91.3629 8.57269C91.9849 9.19977 92.2962 9.93141 92.2962 10.872C92.1924 11.8127 91.8819 12.5441 91.3629 13.1712ZM87.319 12.6487C87.7334 13.0667 88.3553 13.3802 88.9781 13.3802C89.6 13.3802 90.222 13.1712 90.6372 12.6487C91.0515 12.2306 91.3629 11.6036 91.3629 10.872C91.3629 10.1404 91.1553 9.51335 90.6372 9.0953C90.222 8.67724 89.6 8.36366 88.9781 8.36366C88.3553 8.36366 87.7334 8.57269 87.319 9.0953C86.9038 9.51335 86.5924 10.1404 86.5924 10.872C86.5924 11.6036 86.9038 12.2306 87.319 12.6487Z" fill="white" stroke="white" stroke-width="0.2" stroke-miterlimit="10"/>
<path d="M95.5114 14.0075V7.73657H97.7924C98.3114 7.73657 98.7257 7.9456 99.0371 8.25912C99.3485 8.5727 99.5553 8.99076 99.5553 9.40881C99.5553 9.72231 99.4515 9.93134 99.3485 10.2449C99.2447 10.4539 99.0371 10.663 98.7257 10.7675C99.0371 10.872 99.2447 11.081 99.4515 11.2901C99.6591 11.4991 99.7628 11.8126 99.7628 12.2307C99.7628 12.7533 99.5553 13.1714 99.2447 13.4849C98.8295 13.7985 98.4151 14.0075 97.8962 14.0075H95.5114ZM96.3409 10.4539H97.7924C98.1038 10.4539 98.3114 10.3494 98.5181 10.1404C98.7257 9.93134 98.8295 9.72231 98.8295 9.51328C98.8295 9.30426 98.6219 8.99075 98.5181 8.78173C98.3114 8.5727 98.1038 8.46815 97.7924 8.46815H96.3409V10.4539ZM96.3409 13.2759H98C98.3114 13.2759 98.5181 13.1714 98.7257 12.9624C98.9333 12.7533 99.0371 12.5443 99.0371 12.2307C99.0371 12.0217 98.9333 11.7081 98.7257 11.4991C98.5181 11.2901 98.3114 11.1855 98 11.1855H96.4447V13.2759H96.3409Z" fill="white" stroke="white" stroke-width="0.2" stroke-miterlimit="10"/>
</g>
<defs>
<linearGradient id="paint0_linear_119_1541" x1="22.607" y1="9.52347" x2="5.0676" y2="26.9269" gradientUnits="userSpaceOnUse">
<stop stop-color="#00A0FF"/>
<stop offset="0.00657445" stop-color="#00A1FF"/>
<stop offset="0.2601" stop-color="#00BEFF"/>
<stop offset="0.5122" stop-color="#00D2FF"/>
<stop offset="0.7604" stop-color="#00DFFF"/>
<stop offset="1" stop-color="#00E3FF"/>
</linearGradient>
<linearGradient id="paint1_linear_119_1541" x1="35.0874" y1="21.3251" x2="9.9943" y2="21.3251" gradientUnits="userSpaceOnUse">
<stop stop-color="#FFE000"/>
<stop offset="0.4087" stop-color="#FFBD00"/>
<stop offset="0.7754" stop-color="#FFA500"/>
<stop offset="1" stop-color="#FF9C00"/>
</linearGradient>
<linearGradient id="paint2_linear_119_1541" x1="25.7465" y1="23.723" x2="1.96163" y2="47.3236" gradientUnits="userSpaceOnUse">
<stop stop-color="#FF3A44"/>
<stop offset="1" stop-color="#C31162"/>
</linearGradient>
<linearGradient id="paint3_linear_119_1541" x1="7.56755" y1="0.604805" x2="18.1886" y2="11.1434" gradientUnits="userSpaceOnUse">
<stop stop-color="#32A071"/>
<stop offset="0.0685" stop-color="#2DA771"/>
<stop offset="0.4762" stop-color="#15CF74"/>
<stop offset="0.8009" stop-color="#06E775"/>
<stop offset="1" stop-color="#00F076"/>
</linearGradient>
<clipPath id="clip0_119_1541">
<rect width="140" height="43" fill="white"/>
</clipPath>
</defs>
</svg>
